# This file uses centimeters as units for non-parametric coordinates.

mtllib Tree1.mtl
g default
v -0.330608 0.900069 -0.330608
v -0.330608 0.900069 0.330608
v 0.330608 0.900069 0.330608
v 0.330608 0.900069 -0.330608
v -0.185985 1.080583 -0.185985
v -0.185985 1.080583 0.185985
v 0.185985 1.080583 0.185985
v 0.185985 1.080583 -0.185985
v -0.267857 1.080583 -0.267857
v -0.267857 1.080583 0.267857
v 0.267857 1.080583 0.267857
v 0.267857 1.080583 -0.267857
v -0.150684 1.226835 -0.150684
v -0.150684 1.226835 0.150684
v 0.150684 1.226835 0.150684
v 0.150684 1.226835 -0.150684
v -0.220301 1.226835 -0.220301
v -0.220301 1.226835 0.220301
v 0.220301 1.226835 0.220301
v 0.220301 1.226835 -0.220301
v 0.000000 1.425226 0.000000
v 0.139175 -0.000000 -0.045221
v 0.118389 -0.000000 -0.086015
v 0.086015 -0.000000 -0.118389
v 0.045221 -0.000000 -0.139175
v 0.000000 -0.000000 -0.146337
v -0.045221 -0.000000 -0.139175
v -0.086015 -0.000000 -0.118389
v -0.118389 -0.000000 -0.086015
v -0.139175 -0.000000 -0.045221
v -0.146337 -0.000000 0.000000
v -0.139175 -0.000000 0.045221
v -0.118389 -0.000000 0.086015
v -0.086015 -0.000000 0.118389
v -0.045221 -0.000000 0.139174
v -0.000000 -0.000000 0.146337
v 0.045221 -0.000000 0.139174
v 0.086015 -0.000000 0.118389
v 0.118389 -0.000000 0.086015
v 0.139174 -0.000000 0.045221
v 0.146337 -0.000000 0.000000
v 0.139175 0.771348 -0.045221
v 0.118389 0.771348 -0.086015
v 0.086015 0.771348 -0.118389
v 0.045221 0.771348 -0.139175
v 0.000000 0.771348 -0.146337
v -0.045221 0.771348 -0.139175
v -0.086015 0.771348 -0.118389
v -0.118389 0.771348 -0.086015
v -0.139175 0.771348 -0.045221
v -0.146337 0.771348 0.000000
v -0.139175 0.771348 0.045221
v -0.118389 0.771348 0.086015
v -0.086015 0.771348 0.118389
v -0.045221 0.771348 0.139174
v -0.000000 0.771348 0.146337
v 0.045221 0.771348 0.139174
v 0.086015 0.771348 0.118389
v 0.118389 0.771348 0.086015
v 0.139174 0.771348 0.045221
v 0.146337 0.771348 0.000000
v -0.416096 0.672879 -0.416096
v -0.416096 0.672879 0.416096
v 0.416096 0.672879 0.416096
v 0.416096 0.672879 -0.416096
v -0.234076 0.900069 -0.234076
v -0.234076 0.900069 0.234076
v 0.234076 0.900069 0.234076
v 0.234076 0.900069 -0.234076
vt 0.250000 0.500000
vt 0.375000 0.500000
vt 0.500000 0.500000
vt 0.625000 0.500000
vt 0.750000 0.500000
vt 0.625000 0.750000
vt 0.375000 0.750000
vt 0.437500 0.750000
vt 0.500000 0.750000
vt 0.562500 0.750000
vt 0.625000 0.500000
vt 0.750000 0.500000
vt 0.625000 0.750000
vt 0.562500 0.750000
vt 0.250000 0.500000
vt 0.375000 0.500000
vt 0.437500 0.750000
vt 0.375000 0.750000
vt 0.500000 0.500000
vt 0.500000 0.750000
vt 0.250000 0.500000
vt 0.375000 0.500000
vt 0.500000 1.000000
vt 0.500000 0.500000
vt 0.625000 0.500000
vt 0.750000 0.500000
vt 0.375000 0.312500
vt 0.387500 0.312500
vt 0.387500 0.688440
vt 0.400000 0.312500
vt 0.400000 0.688440
vt 0.412500 0.312500
vt 0.412500 0.688440
vt 0.425000 0.312500
vt 0.425000 0.688440
vt 0.437500 0.312500
vt 0.437500 0.688440
vt 0.450000 0.312500
vt 0.450000 0.688440
vt 0.462500 0.312500
vt 0.462500 0.688440
vt 0.475000 0.312500
vt 0.475000 0.688440
vt 0.487500 0.312500
vt 0.487500 0.688440
vt 0.500000 0.312500
vt 0.500000 0.688440
vt 0.512500 0.312500
vt 0.512500 0.688440
vt 0.525000 0.312500
vt 0.525000 0.688440
vt 0.537500 0.312500
vt 0.537500 0.688440
vt 0.550000 0.312500
vt 0.550000 0.688440
vt 0.562500 0.312500
vt 0.562500 0.688440
vt 0.575000 0.312500
vt 0.575000 0.688440
vt 0.587500 0.312500
vt 0.587500 0.688440
vt 0.600000 0.312500
vt 0.600000 0.688440
vt 0.612500 0.312500
vt 0.612500 0.688440
vt 0.625000 0.688440
vt 0.625000 0.500000
vt 0.750000 0.500000
vt 0.625000 0.750000
vt 0.562500 0.750000
vt 0.250000 0.500000
vt 0.375000 0.500000
vt 0.437500 0.750000
vt 0.375000 0.750000
vt 0.500000 0.500000
vt 0.500000 0.750000
vn 0.000000 0.625254 -0.780421
vn 0.000000 0.625254 -0.780421
vn 0.000000 0.625254 -0.780421
vn 0.000000 0.625254 -0.780421
vn -0.780421 0.625254 0.000000
vn -0.780421 0.625254 0.000000
vn -0.780421 0.625254 0.000000
vn -0.780421 0.625254 0.000000
vn -0.000000 0.625254 0.780421
vn -0.000000 0.625254 0.780421
vn -0.000000 0.625254 0.780421
vn -0.000000 0.625254 0.780421
vn 0.780421 0.625254 0.000000
vn 0.780421 0.625254 0.000000
vn 0.780421 0.625254 0.000000
vn 0.780421 0.625254 0.000000
vn 0.000000 0.625255 -0.780421
vn 0.000000 0.625255 -0.780421
vn 0.000000 0.625255 -0.780421
vn 0.000000 0.625255 -0.780421
vn -0.780421 0.625255 -0.000000
vn -0.780421 0.625255 -0.000000
vn -0.780421 0.625255 -0.000000
vn -0.780421 0.625255 -0.000000
vn -0.000000 0.625255 0.780421
vn -0.000000 0.625255 0.780421
vn -0.000000 0.625255 0.780421
vn -0.000000 0.625255 0.780421
vn 0.780421 0.625255 0.000000
vn 0.780421 0.625255 0.000000
vn 0.780421 0.625255 0.000000
vn 0.780421 0.625255 0.000000
vn -0.669190 0.743092 0.000000
vn -0.669190 0.743092 0.000000
vn -0.669190 0.743092 0.000000
vn -0.000000 0.743092 0.669190
vn -0.000000 0.743092 0.669190
vn -0.000000 0.743092 0.669190
vn 0.669190 0.743092 -0.000000
vn 0.669190 0.743092 -0.000000
vn 0.669190 0.743092 -0.000000
vn 0.000000 0.743092 -0.669189
vn 0.000000 0.743092 -0.669189
vn 0.000000 0.743092 -0.669189
vn 0.587785 0.000000 -0.809017
vn 0.809017 0.000000 -0.587785
vn 0.809017 0.000000 -0.587785
vn 0.587785 0.000000 -0.809017
vn 0.309017 0.000000 -0.951057
vn 0.309017 0.000000 -0.951057
vn -0.000000 0.000000 -1.000000
vn -0.000000 0.000000 -1.000000
vn -0.309017 0.000000 -0.951056
vn -0.309017 0.000000 -0.951056
vn -0.587785 0.000000 -0.809017
vn -0.587785 0.000000 -0.809017
vn -0.809017 0.000000 -0.587785
vn -0.809017 0.000000 -0.587785
vn -0.951057 0.000000 -0.309017
vn -0.951057 0.000000 -0.309017
vn -1.000000 0.000000 0.000000
vn -1.000000 0.000000 0.000000
vn -0.951057 0.000000 0.309017
vn -0.951057 0.000000 0.309017
vn -0.809017 0.000000 0.587785
vn -0.809017 0.000000 0.587785
vn -0.587785 0.000000 0.809017
vn -0.587785 0.000000 0.809017
vn -0.309017 0.000000 0.951057
vn -0.309017 0.000000 0.951057
vn 0.000000 0.000000 1.000000
vn 0.000000 0.000000 1.000000
vn 0.309017 0.000000 0.951056
vn 0.309017 0.000000 0.951056
vn 0.587785 0.000000 0.809017
vn 0.587785 0.000000 0.809017
vn 0.809017 0.000000 0.587785
vn 0.809017 0.000000 0.587785
vn 0.951057 0.000000 0.309017
vn 0.951057 0.000000 0.309017
vn 1.000000 0.000000 0.000000
vn 1.000000 0.000000 0.000000
vn 0.951057 0.000000 -0.309016
vn 0.951057 0.000000 -0.309016
vn 0.000000 0.625254 -0.780421
vn 0.000000 0.625254 -0.780421
vn 0.000000 0.625254 -0.780421
vn 0.000000 0.625254 -0.780421
vn -0.780421 0.625254 -0.000000
vn -0.780421 0.625254 -0.000000
vn -0.780421 0.625254 -0.000000
vn -0.780421 0.625254 -0.000000
vn -0.000000 0.625254 0.780421
vn -0.000000 0.625254 0.780421
vn -0.000000 0.625254 0.780421
vn -0.000000 0.625254 0.780421
vn 0.780421 0.625254 0.000000
vn 0.780421 0.625254 0.000000
vn 0.780421 0.625254 0.000000
vn 0.780421 0.625254 0.000000
s off
g pPyramid6
usemtl initialShadingGroup
f 4/4/1 1/5/2 5/6/3 8/10/4
f 1/1/5 2/2/6 6/8/7 5/7/8
f 2/2/9 3/3/10 7/9/11 6/8/12
f 3/3/13 4/4/14 8/10/15 7/9/16
f 12/11/17 9/12/18 13/13/19 16/14/20
f 9/15/21 10/16/22 14/17/23 13/18/24
f 10/16/25 11/19/26 15/20/27 14/17/28
f 11/19/29 12/11/30 16/14/31 15/20/32
f 17/21/33 18/22/34 21/23/35
f 18/22/36 19/24/37 21/23/38
f 19/24/39 20/25/40 21/23/41
f 20/25/42 17/26/43 21/23/44
s 1
f 44/31/45 43/29/46 23/28/47 24/30/48 25/32/49 45/33/50
f 46/35/51 45/33/50 25/32/49 26/34/52 27/36/53 47/37/54
f 48/39/55 47/37/54 27/36/53 28/38/56 29/40/57 49/41/58
f 50/43/59 49/41/58 29/40/57 30/42/60 31/44/61 51/45/62
f 52/47/63 51/45/62 31/44/61 32/46/64 33/48/65 53/49/66
f 54/51/67 53/49/66 33/48/65 34/50/68 35/52/69 55/53/70
f 56/55/71 55/53/70 35/52/69 36/54/72 37/56/73 57/57/74
f 58/59/75 57/57/74 37/56/73 38/58/76 39/60/77 59/61/78
f 60/63/79 59/61/78 39/60/77 40/62/80 41/64/81 61/65/82
f 42/66/83 61/65/82 41/64/81 22/27/84 23/28/47 43/29/46
s off
f 65/67/85 62/68/86 66/69/87 69/70/88
f 62/71/89 63/72/90 67/73/91 66/74/92
f 63/72/93 64/75/94 68/76/95 67/73/96
f 64/75/97 65/67/98 69/70/99 68/76/100
